<!--?xml version="1.0" standalone="no"?-->

<svg version="1.0" xmlns="http://www.w3.org/2000/svg" width="300.000000pt" height="300.000000pt" viewBox="0 0 300.000000 300.000000" preserveAspectRatio="xMidYMid meet">
<metadata>
Created by potrace 1.10, written by Peter Selinger 2001-2011
</metadata>
<g transform="translate(0.000000,300.000000) scale(0.100000,-0.100000)" class="hsm_000000" style="fill:#1b7a7a" stroke="none">
<path d="M2124 2763 c-27 -36 -21 -40 31 -19 48 20 124 18 155 -4 14 -10 35
-37 48 -60 29 -54 40 -211 23 -319 -10 -61 -18 -80 -49 -117 -42 -50 -131 -98
-214 -115 -76 -15 -121 -34 -177 -74 -27 -20 -71 -43 -98 -52 -26 -9 -52 -19
-58 -23 -5 -5 -29 -13 -52 -19 -24 -7 -43 -16 -43 -21 0 -4 -21 -16 -47 -26
-27 -10 -55 -23 -63 -29 -8 -7 -53 -28 -100 -47 -47 -18 -103 -45 -125 -59
-22 -13 -58 -31 -80 -38 -22 -7 -66 -29 -98 -47 -40 -23 -71 -34 -98 -34 -36
0 -41 3 -55 35 -7 19 -14 49 -14 66 0 26 -2 29 -14 20 -8 -7 -17 -23 -20 -36
-4 -16 -14 -25 -25 -25 -17 0 -18 3 -6 38 9 25 20 38 35 40 21 3 21 7 17 115
-4 106 -6 113 -29 127 -14 8 -32 23 -42 33 -10 9 -24 17 -32 17 -8 0 -32 9
-53 19 -52 27 -127 35 -193 22 -45 -10 -64 -21 -109 -65 -61 -60 -109 -159
-109 -225 0 -23 -7 -46 -16 -55 -17 -18 -59 -21 -69 -6 -3 5 -1 56 5 112 9 89
15 114 51 184 36 72 40 85 31 116 -12 44 -5 56 60 105 71 54 120 71 218 77 45
3 88 10 95 16 7 6 26 10 41 9 32 -2 131 38 120 48 -6 6 -93 -9 -152 -28 -17
-5 -64 -9 -105 -9 -77 0 -123 -17 -241 -89 -51 -31 -136 -159 -148 -222 -5
-27 -15 -60 -22 -72 -7 -13 -13 -74 -15 -153 -3 -174 2 -179 146 -150 21 5 23
2 18 -22 -14 -77 -36 -234 -40 -287 -3 -33 -11 -80 -17 -105 -16 -64 -7 -116
27 -152 36 -38 64 -52 133 -66 55 -11 262 -34 310 -34 30 0 124 20 165 35 16
6 44 10 62 8 32 -2 169 37 222 65 14 8 32 14 39 14 7 0 38 11 68 25 30 14 61
25 68 25 8 0 24 -16 36 -35 12 -19 27 -35 33 -35 7 0 20 -29 30 -63 10 -35 29
-76 43 -92 13 -15 24 -32 24 -37 0 -14 -52 -30 -77 -23 -22 5 -23 10 -23 73 3
147 5 142 -45 113 -19 -12 -29 -25 -27 -37 13 -99 21 -201 16 -216 -3 -11 8
-40 30 -76 23 -37 36 -70 36 -92 0 -50 18 -108 37 -118 10 -6 18 -32 23 -83
16 -148 33 -208 75 -257 24 -29 33 -32 79 -32 54 0 104 18 127 46 7 8 25 22
41 30 15 8 28 21 28 29 0 21 -3 20 -72 -31 -59 -43 -66 -46 -107 -40 -25 3
-52 13 -61 21 -21 19 -24 79 -5 116 8 15 15 36 15 47 0 10 26 42 57 71 54 50
59 53 101 48 39 -4 44 -2 53 21 23 59 54 -52 43 -151 -7 -58 1 -72 26 -42 20
24 3 189 -21 211 -28 26 -23 69 16 136 20 33 42 74 50 92 48 104 229 346 260
346 7 0 29 16 48 35 19 19 42 35 52 35 22 0 9 -19 -23 -32 -26 -11 -26 -12 -5
-15 44 -8 38 -100 -10 -155 -53 -61 -225 -305 -251 -356 -14 -28 -23 -58 -20
-66 10 -26 24 -18 24 12 0 27 48 97 131 192 17 19 51 70 76 113 24 43 48 76
51 72 4 -4 7 -43 7 -88 0 -76 2 -82 21 -85 11 -2 27 4 34 13 7 8 25 15 41 15
16 0 30 6 31 13 0 6 2 26 3 42 2 17 8 75 16 130 7 55 13 190 13 300 l1 200
-22 3 c-13 2 -23 -1 -23 -7 0 -6 -18 -11 -39 -11 -49 0 -52 -9 -43 -115 9
-106 6 -124 -24 -131 -13 -3 -24 -9 -24 -14 0 -4 -17 -14 -38 -22 -28 -11 -55
-37 -99 -94 -34 -43 -75 -92 -93 -109 -29 -27 -41 -46 -89 -133 -7 -14 -33
-44 -56 -66 -23 -23 -56 -71 -74 -108 -30 -64 -57 -88 -81 -73 -15 9 -12 121
5 162 22 53 9 54 -35 3 -21 -25 -46 -44 -54 -42 -8 1 -17 -2 -21 -8 -3 -5 -21
-10 -40 -10 -19 0 -37 -5 -41 -11 -12 -20 -68 0 -101 37 -24 25 -33 45 -33 70
0 34 0 34 44 34 25 0 47 4 50 9 4 6 21 5 43 -1 44 -12 115 -2 164 23 25 12 37
14 36 6 -1 -37 4 -57 13 -52 15 9 12 107 -5 154 -23 65 -64 113 -91 107 -32
-8 -34 17 -6 89 46 121 64 148 110 165 23 9 47 21 54 28 7 7 22 12 34 12 13 0
25 4 28 9 3 4 40 21 83 36 72 26 179 86 195 110 5 6 18 6 39 -2 18 -7 36 -10
41 -6 6 3 21 29 34 57 27 57 32 163 13 291 -5 39 -12 99 -15 135 -3 36 -10 75
-16 87 -11 23 -8 57 15 164 10 45 13 105 11 182 -3 101 -8 123 -33 178 -16 35
-41 75 -55 89 -24 22 -37 25 -102 25 -73 1 -76 0 -100 -32z m-1728 -598 c-3
-13 -16 -44 -30 -67 l-26 -43 7 35 c6 32 40 100 49 100 2 0 2 -11 0 -25z
m1949 -63 c4 -31 16 -92 27 -134 16 -63 19 -101 17 -197 -4 -133 -13 -154 -50
-127 -34 23 -56 20 -81 -14 -12 -16 -29 -30 -37 -30 -19 -1 -51 -23 -51 -36 0
-13 -167 -90 -211 -98 -19 -3 -53 -15 -74 -26 -22 -11 -47 -20 -57 -20 -9 0
-19 -4 -22 -9 -3 -5 -26 -12 -50 -15 -25 -4 -55 -15 -68 -25 -13 -10 -34 -22
-48 -26 -14 -4 -36 -16 -50 -25 -14 -10 -44 -23 -67 -29 -23 -6 -45 -16 -48
-21 -3 -6 -14 -10 -23 -10 -9 0 -32 -11 -51 -24 -20 -13 -63 -29 -96 -36 -33
-6 -87 -25 -120 -40 -40 -19 -69 -27 -87 -23 -37 7 -35 19 7 44 19 11 37 30
41 41 3 12 19 33 34 47 l28 26 -13 175 c-11 137 -11 177 -2 186 7 6 41 23 77
38 59 26 396 188 462 222 14 8 32 14 40 14 7 1 31 9 53 20 22 11 45 19 51 20
6 0 37 19 70 42 41 29 101 56 198 89 76 26 146 54 154 63 24 24 40 3 47 -62z
m-1565 -12 c0 -15 -38 -32 -42 -19 -2 7 -13 9 -25 5 -14 -4 -20 -12 -16 -22 3
-9 -1 -14 -14 -14 -49 0 -139 -71 -163 -130 -19 -46 -32 -48 -25 -3 8 45 66
135 102 158 14 10 40 19 57 22 17 3 33 6 34 8 8 8 92 3 92 -5z m-449 -93 c-6
-6 -11 -21 -11 -34 0 -13 -5 -23 -11 -23 -12 0 -3 53 14 85 11 19 11 19 15 1
2 -10 -1 -23 -7 -29z m522 13 c14 -11 42 -27 63 -36 l36 -15 -7 -62 c-3 -34
-14 -70 -22 -79 -18 -20 -82 -25 -99 -8 -5 5 -38 10 -72 11 -47 1 -67 -3 -82
-16 -39 -36 -58 -96 -70 -230 -20 -213 -8 -224 235 -224 77 0 152 5 167 11 37
14 53 71 38 128 -16 58 6 128 36 116 7 -3 18 2 24 10 17 20 37 18 50 -5 5 -11
10 -79 10 -151 0 -154 -3 -162 -99 -267 -51 -56 -72 -73 -93 -73 -15 0 -46 -7
-68 -16 -37 -15 -43 -15 -74 0 -25 12 -64 16 -153 16 -99 0 -124 3 -156 20
-20 11 -44 20 -52 20 -8 0 -19 9 -25 20 -13 25 -19 99 -9 126 7 19 25 172 35
297 9 108 36 208 74 275 47 81 62 96 115 110 22 6 58 17 80 26 55 21 88 20
118 -4z m-33 -242 c0 -5 19 -6 46 -2 43 6 46 5 40 -13 -8 -27 41 -75 54 -53 7
11 11 9 19 -13 6 -15 18 -27 27 -27 13 0 14 -3 5 -14 -9 -10 -9 -16 -1 -21 8
-5 8 -11 -1 -21 -6 -8 -11 -48 -11 -96 0 -70 -3 -87 -20 -105 -12 -12 -25 -20
-30 -17 -5 3 -69 6 -141 6 -97 0 -138 4 -155 15 -12 7 -20 18 -16 24 4 6 13 4
25 -7 18 -16 19 -16 19 0 0 9 -11 21 -25 26 -14 5 -25 14 -25 19 0 5 -3 16 -6
25 -4 10 -1 16 7 16 10 0 14 15 12 56 -1 36 5 71 17 97 11 23 16 53 13 67 -6
31 10 47 52 52 44 5 95 -3 95 -14z m-157 -78 c-3 -11 -9 -23 -14 -25 -13 -9
-17 9 -8 33 11 28 29 21 22 -8z m1864 -395 c-4 -142 -18 -308 -32 -372 -3 -14
-13 -23 -25 -23 -17 0 -19 6 -14 53 3 28 10 81 16 117 6 36 11 142 11 235 0
172 7 205 35 167 10 -13 12 -55 9 -177z m-759 52 c16 -19 -1 -39 -29 -35 -20
2 -25 -2 -27 -24 -2 -16 0 -28 5 -28 4 0 8 -24 8 -53 0 -51 0 -52 -28 -49 -23
3 -28 0 -25 -15 2 -11 12 -18 27 -18 34 0 46 -40 26 -88 -17 -40 -40 -47 -62
-19 -24 31 -54 92 -48 101 11 19 -8 69 -31 80 -14 6 -24 19 -24 31 0 12 -4 19
-8 16 -5 -3 -22 -1 -38 4 l-29 8 28 1 c37 1 209 68 222 87 12 17 19 18 33 1z
m65 -294 c9 -11 17 -32 17 -46 0 -42 -15 -46 -118 -38 -8 1 -6 8 8 23 18 19
23 37 23 73 0 19 52 10 70 -12z m-51 -315 c22 -18 41 -124 27 -151 -6 -12 -36
-47 -66 -79 -54 -55 -55 -57 -44 -89 8 -22 8 -36 1 -43 -5 -5 -10 -8 -11 -6
-4 23 -9 56 -19 120 -7 41 -18 108 -26 149 -16 84 -13 90 43 101 58 12 78 11
95 -2z"></path>
<path d="M1711 1521 c-40 -10 -39 -32 1 -24 39 7 45 11 32 22 -5 4 -20 5 -33
2z"></path>
<path d="M1567 1484 c-10 -11 3 -24 24 -24 10 0 19 7 19 15 0 15 -31 21 -43 9z"></path>
<path d="M1465 1454 c-22 -9 -62 -19 -90 -24 -87 -14 -101 -23 -109 -71 -4
-23 -5 -44 -3 -46 3 -2 17 7 33 20 16 13 49 29 74 36 25 7 51 18 59 24 17 14
48 32 89 51 17 8 32 17 32 20 0 11 -45 5 -85 -10z"></path>
<path d="M880 1695 c26 -28 8 -36 -26 -11 -17 13 -21 12 -36 -1 -10 -9 -18
-13 -18 -10 0 14 -62 -17 -76 -39 -20 -29 -20 -103 -1 -141 51 -98 248 -62
247 45 -1 47 -74 182 -99 182 -10 0 -7 -8 9 -25z m12 -62 c22 -25 42 -97 34
-126 -5 -21 -13 -25 -65 -30 -98 -11 -111 0 -111 89 l0 60 53 11 c28 5 57 11
63 11 6 1 18 -6 26 -15z"></path>
<path d="M807 1584 c-12 -12 -8 -54 6 -60 8 -3 26 0 41 6 39 15 33 54 -9 58
-17 2 -34 0 -38 -4z"></path>
<path d="M2050 2731 c-8 -5 -46 -17 -83 -26 -38 -9 -81 -23 -95 -31 -15 -8
-43 -14 -62 -14 -19 0 -48 -7 -64 -15 -15 -8 -40 -15 -55 -15 -32 0 -147 -24
-181 -38 -14 -6 -65 -16 -115 -23 -49 -7 -105 -21 -123 -32 -18 -11 -42 -17
-53 -14 -12 3 -33 1 -48 -5 -14 -6 -55 -18 -91 -27 -36 -9 -64 -20 -62 -26 4
-12 37 -8 106 12 28 8 76 20 107 27 31 8 72 19 90 25 19 6 70 16 114 22 44 6
94 17 112 24 29 12 177 43 243 50 14 1 45 10 69 19 24 9 66 18 93 20 27 2 57
11 66 19 9 9 30 20 45 26 16 6 25 15 22 21 -7 12 -15 12 -35 1z"></path>
<path d="M2227 2554 c-3 -4 -28 -10 -54 -15 -26 -5 -70 -20 -98 -34 -27 -14
-68 -31 -90 -39 -22 -7 -39 -17 -37 -22 4 -12 27 -7 92 23 83 37 90 40 159 54
35 8 66 20 69 27 4 12 -29 17 -41 6z"></path>
<path d="M990 2383 c-14 -3 -33 -12 -42 -21 -9 -10 -24 -23 -33 -30 -17 -14
-21 -52 -5 -52 5 0 14 9 20 20 11 20 83 71 97 69 19 -3 33 2 33 11 0 10 -24
11 -70 3z"></path>
<path d="M770 2314 c-8 -27 -14 -54 -15 -61 -1 -20 -11 -24 -36 -14 -13 5 -18
10 -11 10 6 1 12 5 12 10 0 17 -123 23 -161 7 -20 -8 -46 -12 -57 -9 -18 4
-22 1 -22 -20 0 -35 11 -39 57 -21 35 14 46 14 103 1 43 -10 70 -12 82 -6 12
6 24 5 38 -3 16 -10 22 -10 32 0 10 10 10 15 -2 22 -8 5 -11 12 -7 16 3 4 13
1 22 -6 26 -22 30 -2 6 31 -16 22 -20 34 -12 43 8 9 7 18 -3 31 -12 16 -14 13
-26 -31z"></path>
<path d="M1455 2291 c-60 -22 -85 -34 -85 -42 0 -12 5 -12 61 8 27 10 51 23
53 30 6 14 1 15 -29 4z"></path>
<path d="M1075 2280 c-3 -5 -19 -10 -36 -10 -22 0 -29 -5 -29 -20 0 -24 -1
-24 50 -4 22 9 40 22 40 30 0 16 -16 19 -25 4z"></path>
<path d="M1644 2254 c-21 -13 -45 -22 -53 -19 -16 6 -91 -14 -111 -31 -8 -6
-36 -15 -62 -18 -27 -4 -48 -11 -48 -17 0 -12 87 -12 94 0 3 5 15 7 26 4 13
-4 29 4 47 21 18 18 36 26 60 26 29 0 113 33 113 44 0 15 -33 10 -66 -10z"></path>
<path d="M2144 2266 c-9 -24 0 -51 18 -54 19 -4 53 42 43 58 -9 15 -55 12 -61
-4z"></path>
<path d="M826 2221 c-8 -13 128 -151 149 -151 8 0 15 5 15 12 0 21 13 -1 29
-49 9 -26 22 -48 29 -51 17 -5 15 43 -3 58 -18 15 -20 30 -4 30 6 0 13 -9 16
-20 6 -22 43 -28 43 -7 0 7 -14 28 -31 45 -17 18 -27 32 -23 33 5 0 21 3 37 5
15 3 27 0 27 -6 0 -5 10 -10 23 -10 13 0 28 -5 34 -11 8 -8 17 -7 34 5 13 9
33 16 45 16 22 0 62 36 51 47 -4 3 -18 1 -32 -5 -32 -15 -100 -15 -126 -1 -15
7 -27 6 -50 -5 -16 -8 -49 -18 -73 -21 -38 -6 -44 -4 -59 18 -27 41 -119 89
-131 68z"></path>
<path d="M1847 2154 c-4 -4 -7 -20 -7 -36 0 -31 15 -36 46 -14 15 12 17 18 8
33 -12 19 -36 28 -47 17z"></path>
<path d="M1559 1994 c-17 -20 -1 -48 31 -52 26 -4 50 20 50 50 0 23 -62 25
-81 2z"></path>
<path d="M1271 1871 c-25 -35 -27 -59 -4 -68 22 -9 55 33 51 65 -4 36 -23 38
-47 3z"></path>
<path d="M1582 860 c0 -18 4 -30 12 -30 21 0 24 10 12 35 -15 33 -23 31 -24
-5z"></path>
<path d="M1692 870 c-7 -11 -23 -20 -37 -20 -14 0 -25 -4 -25 -10 0 -12 47
-13 54 -1 3 4 20 11 37 15 27 5 30 8 19 21 -17 20 -33 19 -48 -5z"></path>
</g>
</svg>
