<!--?xml version="1.0" standalone="no"?-->

<svg version="1.0" xmlns="http://www.w3.org/2000/svg" width="300.000000pt" height="300.000000pt" viewBox="0 0 300.000000 300.000000" preserveAspectRatio="xMidYMid meet">
<metadata>
Created by potrace 1.10, written by Peter Selinger 2001-2011
</metadata>
<g transform="translate(0.000000,300.000000) scale(0.100000,-0.100000)" class="hsm_000000" style="fill:#1b7a7a" stroke="none">
<path d="M1850 2850 c-8 -5 -40 -12 -70 -16 -96 -12 -269 -109 -320 -181 -19
-26 -44 -58 -55 -71 -20 -22 -83 -141 -129 -244 -17 -38 -26 -75 -26 -110 0
-73 -14 -116 -55 -173 -37 -53 -102 -95 -147 -95 -15 0 -29 -4 -32 -9 -4 -5
-24 -12 -46 -16 -22 -4 -42 -11 -46 -16 -3 -5 -9 -7 -14 -4 -5 3 -27 -6 -49
-20 -23 -14 -46 -25 -52 -25 -21 0 -203 -113 -263 -162 -82 -68 -142 -152
-130 -183 10 -25 59 -45 111 -45 26 0 85 -7 131 -15 115 -20 259 -29 307 -18
22 6 46 8 53 6 18 -7 15 -41 -7 -77 -10 -17 -29 -67 -41 -111 -12 -44 -28
-100 -35 -125 -47 -159 -46 -360 2 -497 33 -94 41 -105 116 -165 45 -37 81
-54 165 -82 l108 -35 99 11 c152 16 249 72 361 209 32 40 68 82 80 93 11 12
41 50 65 86 64 91 89 190 89 344 0 106 -2 122 -25 164 -14 26 -25 52 -25 57 0
6 -20 43 -44 82 -24 38 -46 82 -50 96 -6 25 -3 27 51 42 32 9 107 37 168 63
116 49 151 77 215 166 19 27 39 55 45 62 17 23 -8 68 -50 91 -22 12 -46 22
-53 22 -8 1 -50 17 -95 37 -45 20 -98 40 -117 45 -19 4 -53 12 -75 18 -22 6
-57 11 -77 11 -20 0 -40 5 -43 10 -9 15 -45 12 -45 -4 0 -10 16 -17 48 -21 26
-4 58 -10 72 -15 14 -5 43 -12 65 -16 22 -4 67 -17 100 -30 33 -12 90 -34 127
-48 37 -14 77 -31 88 -38 27 -17 27 -69 -1 -94 -12 -10 -29 -35 -40 -55 -18
-36 -113 -109 -141 -109 -7 0 -26 -7 -41 -15 -15 -8 -42 -19 -60 -24 -18 -5
-57 -19 -87 -30 -30 -12 -64 -20 -75 -19 -11 1 -24 0 -30 -3 -22 -13 -124 -40
-190 -51 -60 -9 -296 -15 -390 -9 -16 1 -86 -3 -155 -9 -147 -14 -387 -7 -421
10 -12 7 -59 13 -104 14 -85 1 -115 13 -115 45 0 15 122 149 160 176 8 6 29
21 47 33 17 12 45 24 62 26 17 2 36 8 43 13 7 6 43 26 79 46 48 25 70 32 82
25 12 -6 28 -3 54 11 21 11 53 25 71 32 21 7 31 17 28 25 -4 10 4 14 27 14
l32 -1 -27 -23 c-15 -13 -33 -26 -40 -28 -10 -4 -10 -8 1 -22 14 -16 19 -14
65 36 28 30 59 57 68 60 9 4 17 15 17 25 0 10 25 92 56 182 30 91 55 178 55
195 0 43 39 116 71 135 16 9 29 24 29 34 0 11 -5 15 -11 11 -6 -3 -3 5 6 20
10 15 23 30 31 34 7 4 23 22 36 41 13 18 44 45 69 60 25 14 66 40 92 57 33 22
65 34 105 38 31 4 80 13 107 21 105 28 121 28 151 0 15 -14 35 -25 44 -25 27
0 43 -26 35 -58 -7 -33 -185 -214 -252 -256 -36 -22 -45 -35 -58 -79 -9 -30
-22 -62 -29 -73 -13 -17 -14 -16 -9 11 4 17 13 41 22 54 15 23 15 24 -6 12
-13 -7 -24 -24 -27 -44 -3 -17 -11 -57 -17 -87 -20 -104 -21 -129 -6 -172 9
-24 18 -63 22 -88 6 -44 40 -94 57 -84 5 3 -1 21 -13 40 -17 27 -20 44 -15 75
3 21 2 39 -3 39 -17 0 -31 61 -25 108 3 26 17 72 32 102 14 30 27 60 28 65 2
6 7 24 13 40 8 26 9 27 10 7 1 -12 -5 -38 -13 -57 -8 -19 -11 -37 -6 -40 11
-7 24 17 40 80 14 53 30 81 30 52 0 -26 14 -20 28 12 7 16 44 59 82 95 77 73
160 179 160 206 0 17 -29 50 -45 50 -4 0 -23 11 -41 25 -28 22 -43 25 -111 25
-43 0 -85 -5 -93 -10z m-25 -1356 c8 -9 22 -30 29 -48 7 -18 26 -45 41 -62 46
-49 86 -142 95 -219 16 -141 -17 -302 -79 -390 -83 -118 -248 -290 -302 -317
-104 -51 -112 -53 -225 -53 -64 0 -121 5 -135 12 -13 6 -54 25 -90 42 -168 79
-217 178 -219 441 -1 74 5 133 20 200 12 52 24 106 26 120 6 29 15 40 21 24
10 -29 40 2 67 67 20 51 35 73 53 80 13 5 29 22 34 38 13 37 36 41 169 31 119
-8 243 1 375 29 50 10 93 19 97 20 4 0 14 -6 23 -15z m-725 -42 c0 -14 -28
-64 -50 -92 -16 -20 -19 -21 -13 -5 4 11 15 33 24 49 10 16 15 35 12 42 -3 8
1 14 11 14 9 0 16 -4 16 -8z"></path>
<path d="M1593 1328 c-52 -54 -63 -77 -63 -127 0 -69 66 -125 122 -101 47 19
61 38 65 87 4 40 -1 59 -29 113 -18 35 -38 66 -43 67 -6 2 -29 -16 -52 -39z
m62 -44 c46 -49 45 -130 0 -154 -23 -12 -30 -12 -53 2 -40 25 -49 75 -23 132
23 53 41 58 76 20z"></path>
<path d="M1220 1316 c-53 -42 -69 -70 -70 -119 0 -30 7 -45 29 -68 25 -25 37
-29 83 -29 46 0 58 4 81 28 41 43 45 84 13 131 -25 35 -57 68 -83 84 -6 4 -30
-9 -53 -27z m74 -35 c70 -46 73 -112 8 -148 -28 -17 -42 -16 -79 2 -53 26 -53
113 -1 149 29 20 37 20 72 -3z"></path>
<path d="M1621 831 c-12 -16 -41 -42 -66 -58 -25 -15 -45 -31 -45 -35 0 -5
-28 -8 -62 -8 -56 0 -68 4 -104 33 -22 17 -48 40 -58 50 -39 39 -79 3 -61 -55
13 -43 74 -143 94 -155 37 -23 166 -44 196 -33 100 38 168 160 156 278 -2 22
-29 13 -50 -17z m-243 -130 c15 -8 41 -10 77 -6 44 6 66 16 112 52 55 43 58
44 61 23 2 -12 1 -32 -2 -44 -8 -33 -75 -106 -97 -106 -10 0 -19 -5 -19 -11 0
-12 -17 -10 -121 11 l-56 11 -41 75 c-23 41 -42 76 -42 79 0 3 24 -12 53 -33
28 -21 62 -44 75 -51z"></path>
</g>
</svg>
